<svg width="26" height="26" viewBox="0 0 26 26" fill="none" xmlns="http://www.w3.org/2000/svg">
<path d="M10.9476 0.0912724C8.0247 0.613953 5.52538 1.9701 3.5344 4.1032C-0.631123 8.55304 -1.1677 15.136 2.20708 20.2639C3.60501 22.3688 5.65247 24.0922 7.86937 25.0245C9.76151 25.8297 10.8064 26.0134 13.1645 25.9993C15.678 25.9851 16.8217 25.7309 18.8127 24.742C22.1169 23.1033 24.475 20.2639 25.6046 16.5486C25.9576 15.3903 26 15.0795 26 13.017C26 10.9545 25.9576 10.6438 25.6046 9.48539C25.0822 7.73371 24.4044 6.37756 23.3877 5.03555C21.6368 2.7188 19.2787 1.16489 16.271 0.345549C15.1555 0.0347658 12.0208 -0.106499 10.9476 0.0912724ZM15.918 1.37678C17.9514 1.89946 19.6882 2.88832 21.3403 4.45636C23.7407 6.7731 24.9692 9.65491 24.9692 13.017C24.9692 16.5063 23.7407 19.2892 21.1002 21.7896C20.1541 22.6937 19.5893 23.0892 18.4456 23.6684C16.4687 24.6572 15.1979 24.9539 13.0233 24.9539C9.52146 24.9539 6.68326 23.7108 4.25454 21.0974C2.26356 18.9501 1.28926 16.6334 1.13393 13.6386C0.964485 10.3612 2.02352 7.36642 4.18394 5.00729C7.27632 1.64519 11.6395 0.289043 15.918 1.37678Z" fill="#969696" fill-opacity="0.5"/>
<path d="M10.51 8.94883C10.4535 8.99121 10.4111 10.8418 10.4111 13.0455C10.4111 16.3794 10.4394 17.0716 10.6088 17.1281C10.8489 17.227 17.7538 13.2433 17.7538 13.0173C17.7538 12.9325 17.4855 12.7065 17.1607 12.5228C16.8218 12.3392 15.2686 11.4351 13.6871 10.5169C12.1197 9.59865 10.7783 8.84995 10.7218 8.84995C10.6512 8.84995 10.5523 8.89233 10.51 8.94883Z" fill="#969696" fill-opacity="0.5"/>
</svg>
