<svg width="26" height="26" viewBox="0 0 26 26" fill="none" xmlns="http://www.w3.org/2000/svg">
<path d="M24.6006 4.73329L24.6006 4.73331C24.8563 4.98904 25 5.33586 25 5.69754V22.4458C25 23.8516 23.8604 24.9912 22.4545 24.9912H3.54545C2.13963 24.9912 1 23.8516 1 22.4458V3.53667C1 2.13085 2.13964 0.991211 3.54545 0.991211H20.2937C20.6553 0.991211 21.0022 1.13486 21.2579 1.39063L24.6006 4.73329ZM4.72727 24.6276H5.72727V23.6276V16.5367C5.72727 15.1308 6.86691 13.9912 8.27273 13.9912H17.7273C19.1331 13.9912 20.2727 15.1308 20.2727 16.5367V23.6276V24.6276H21.2727H22.4545C23.6595 24.6276 24.6364 23.6508 24.6364 22.4458V6.87936C24.6364 5.98728 24.282 5.13173 23.6512 4.5009C23.6512 4.50089 23.6511 4.50089 23.6511 4.50088L21.4903 2.34004L21.4903 2.34002C20.8595 1.70924 20.004 1.35485 19.1119 1.35485H18.9091H17.9091V2.35485V4.71848C17.9091 6.12431 16.7695 7.26394 15.3636 7.26394H10.6364C9.23055 7.26394 8.09091 6.12429 8.09091 4.71848V2.35485V1.35485H7.09091H3.54545C2.34048 1.35485 1.36364 2.33169 1.36364 3.53667V22.4458C1.36364 23.6508 2.34049 24.6276 3.54545 24.6276H4.72727ZM18.9091 24.6276H19.9091V23.6276V16.5367C19.9091 15.3317 18.9323 14.3548 17.7273 14.3548H8.27273C7.06776 14.3548 6.09091 15.3316 6.09091 16.5367V23.6276V24.6276H7.09091H18.9091ZM9.45455 1.35485H8.45455V2.35485V4.71848C8.45455 5.92346 9.43139 6.9003 10.6364 6.9003H15.3636C16.5687 6.9003 17.5455 5.92345 17.5455 4.71848V2.35485V1.35485H16.5455H9.45455Z" stroke="#969696" stroke-opacity="0.5" stroke-width="2"/>
</svg>
