<svg width="26" height="27" viewBox="0 0 26 27" fill="none" xmlns="http://www.w3.org/2000/svg">
<path d="M10.6269 6.88343H15.3869L15.636 6.91109L15.8435 6.98025L16.0649 7.10473L16.2448 7.27071L16.3555 7.40902L16.4662 7.60266L17.2549 9.17946L17.2688 9.23478L19.0261 9.24861L19.3028 9.27628L19.5104 9.31777L19.801 9.41459L20.0639 9.53908L20.2161 9.6359L20.4375 9.80188L20.645 9.99552L20.7972 10.1753L20.9356 10.3828L21.0601 10.6041L21.1708 10.8946L21.24 11.1574L21.2677 11.3648L21.2815 11.5585V18.7647L21.2539 19.069L21.1985 19.3318L21.1016 19.6084L20.9771 19.8712L20.8387 20.0787L20.7004 20.2585L20.4513 20.5075L20.2022 20.6873L19.9808 20.8118L19.801 20.8948L19.5519 20.9777L19.206 21.0469L19.0538 21.0607H6.94625L6.68334 21.0331L6.39276 20.9639L6.11602 20.8533L5.85311 20.715L5.65939 20.5766L5.46567 20.4107L5.3273 20.2723L5.17509 20.0787L5.03672 19.8712L4.89835 19.5808L4.80149 19.2903L4.74614 18.9998L4.7323 18.8615L4.71847 18.3636V12.0702L4.7323 11.4478L4.77382 11.1435L4.843 10.8807L4.9537 10.6041L5.10591 10.3275L5.23044 10.1615L5.38265 9.98168L5.50718 9.8572L5.65939 9.73272L5.85311 9.5944L6.17137 9.42842L6.44811 9.3316L6.69718 9.27628L6.93241 9.24861L8.74508 9.23478L8.77275 9.15179L9.56147 7.575L9.67217 7.38136L9.82437 7.21538L9.94891 7.10473L10.0873 7.02174L10.198 6.96641L10.3779 6.91109L10.6269 6.88343ZM11.3741 9.26245L10.5301 10.9499L10.4055 11.1435L10.3502 11.2127V11.2404H10.3225V11.268H10.2948L10.2257 11.3372L10.0734 11.4478L9.89356 11.5308L9.69984 11.5861L9.47845 11.6138L7.11229 11.6276V18.6955L8.20543 18.7094H17.587L18.8877 18.6955L18.9015 18.6541V11.6276L16.5216 11.6138L16.3002 11.5861L16.0788 11.517L15.8989 11.4202L15.7743 11.3233L15.636 11.185L15.4976 10.9776L14.6674 9.31777L14.6535 9.27628L14.6259 9.26245H11.3741Z" fill="#969696" fill-opacity="0.5"/>
<path d="M12.7855 11.019H13.2283L13.6019 11.0605L13.9617 11.1435L14.3353 11.268L14.7366 11.4617L14.9856 11.6138L15.207 11.7798L15.3869 11.9319L15.4976 12.0287L15.5945 12.1394L15.6913 12.2362L15.8435 12.4299L15.9819 12.6235L16.1203 12.8586L16.231 13.0661L16.3693 13.4119L16.4524 13.7024L16.5077 13.9513L16.5492 14.2833V14.8642L16.5216 15.0993L16.4385 15.5005L16.314 15.8739L16.1895 16.1505L16.0511 16.3995L15.9127 16.607L15.7882 16.773L15.6221 16.9666L15.553 17.0496H15.5253V17.0773H15.4976V17.1049L15.3869 17.2017L15.1932 17.3677L14.958 17.5337L14.6259 17.7273L14.3906 17.838L14.0447 17.9625L13.7126 18.0455L13.3528 18.1008L13.2006 18.1146H12.7855L12.5226 18.087L12.2182 18.0316L11.8723 17.9348L11.5817 17.8242L11.2773 17.672L10.9729 17.4784L10.793 17.3401L10.6131 17.1879L10.3225 16.8974L10.1703 16.7038L10.0596 16.5517L9.92123 16.3304L9.78286 16.0676L9.67217 15.8048L9.58914 15.5558L9.50612 15.1962L9.46461 14.9057L9.45077 14.7259V14.4216L9.47845 14.1035L9.54763 13.7439L9.64449 13.4119L9.72751 13.1906L9.87972 12.8725L10.0458 12.5958L10.2118 12.3745L10.3363 12.2224L10.4055 12.1394H10.4332L10.4609 12.0841L10.5716 11.9734H10.5993V11.9458L10.7515 11.8213L10.9452 11.6691L11.1804 11.517L11.4295 11.3787L11.7477 11.2404L12.0383 11.1435L12.4119 11.0605L12.7855 11.019ZM12.8962 13.3981L12.661 13.4396L12.4811 13.5087L12.3289 13.6055L12.1767 13.73V13.7577L12.1352 13.7715L11.9968 13.9652L11.8999 14.1726L11.8446 14.3801L11.8308 14.5184V14.6429L11.8584 14.8227L11.9138 15.0025L12.0106 15.1962L12.149 15.376L12.2874 15.5005L12.4673 15.6111L12.6195 15.6803L12.8824 15.7356H13.1315L13.3805 15.6803L13.5466 15.6111L13.6988 15.5143L13.8371 15.4036L13.934 15.293L14.0447 15.127L14.1277 14.9195L14.1692 14.7536V14.4078L14.1277 14.2141L14.0585 14.0482L13.9755 13.896L13.851 13.7439L13.7126 13.6194L13.5189 13.5087L13.3528 13.4396L13.1315 13.3981H12.8962Z" fill="#969696" fill-opacity="0.5"/>
<path d="M24.644 18.6955H24.9899L25.2113 18.7509L25.4327 18.8615L25.5157 18.9169L25.6264 18.9998L25.7233 19.1105L25.8478 19.2765L25.9308 19.4563L25.9862 19.6361L26 19.7329V23.6611L25.9585 24.0069L25.8893 24.325L25.7924 24.6431L25.6541 24.9612L25.5157 25.224L25.3912 25.4177L25.2251 25.639L25.0591 25.8326L24.8377 26.0539L24.6855 26.1784L24.5471 26.2891L24.3395 26.4274L24.0213 26.6072L23.703 26.7455L23.3433 26.8561L22.9973 26.9253L22.5961 26.9668H18.8047L18.5695 26.9253L18.3619 26.8423L18.1958 26.7317L18.0575 26.6072L17.9468 26.4827L17.8361 26.3029L17.7531 26.0816L17.7254 25.9571L17.7115 25.7496L17.7392 25.5422L17.8084 25.3208L17.9053 25.141L18.0298 24.9751L18.1405 24.8644L18.3204 24.7399L18.5003 24.6569L18.6386 24.6154L18.9015 24.5878L22.5822 24.5739L22.7898 24.5324L22.9697 24.4633L23.1495 24.3526L23.2879 24.242L23.4263 24.0622L23.537 23.8409L23.5923 23.6472L23.6062 23.5504L23.62 19.8297L23.6477 19.6223L23.7169 19.401L23.8276 19.2073L23.9244 19.0828L24.049 18.9583L24.2565 18.82L24.4502 18.737L24.644 18.6955Z" fill="#969696" fill-opacity="0.5"/>
<path d="M1.02395 18.6955H1.36988L1.59127 18.7509L1.8265 18.8615L2.02022 19.0137L2.14476 19.152L2.24162 19.3041L2.3108 19.4425L2.36615 19.6223L2.37999 19.7191L2.39383 20.0925V23.3706L2.4215 23.6611L2.46301 23.827L2.57371 24.0483L2.71208 24.2282L2.83662 24.3388L2.98882 24.4356L3.16871 24.5186L3.34859 24.5601L3.43161 24.5739L7.09846 24.5878L7.36136 24.6154L7.54124 24.6708L7.73497 24.7676L7.92869 24.9197L8.05322 25.058L8.16392 25.2379L8.21926 25.3485L8.27461 25.556L8.28845 25.6251V25.9294L8.2331 26.1646L8.12241 26.3997L7.99787 26.5657L7.8595 26.704L7.66578 26.8285L7.47206 26.9115L7.29218 26.953L7.18148 26.9668H3.3901L3.07185 26.9391L2.71208 26.87L2.37999 26.7732L2.0479 26.6348L1.75732 26.4827L1.50825 26.3167L1.32837 26.1784L1.05162 25.9294L0.830229 25.6943L0.650346 25.4592L0.4843 25.1964L0.373603 25.0027L0.235232 24.6846L0.138371 24.3941L0.0553486 24.0345L0.0138371 23.7026L0 23.1908V19.8851L0.0276743 19.6361L0.09686 19.4148L0.19372 19.235L0.332092 19.0552L0.470463 18.9307L0.664183 18.8062L0.844066 18.737L1.02395 18.6955Z" fill="#969696" fill-opacity="0.5"/>
<path d="M18.7217 0.966797H22.7068L23.0527 1.00829L23.3709 1.07745L23.703 1.1881L23.9659 1.29875L24.2427 1.4509L24.5333 1.64454L24.6716 1.75519L24.8654 1.92117L25.0729 2.12864L25.1698 2.2393L25.3081 2.41911L25.4742 2.66807L25.6402 2.97237L25.7786 3.30432L25.8616 3.56712L25.9308 3.87142L25.9723 4.20337L25.9862 4.42468V8.0762L25.9585 8.31133L25.9031 8.50498L25.7786 8.72628L25.6541 8.87843L25.5019 9.01674L25.3358 9.11356L25.1144 9.19655L24.9207 9.23805H24.6578L24.4641 9.19655L24.2842 9.12739L24.1181 9.03057L23.9659 8.90609L23.8414 8.76778L23.7307 8.58797L23.6615 8.42199L23.6062 8.18685L23.5923 7.66125V4.46617L23.5647 4.24487L23.5093 4.06506L23.4125 3.87142L23.2741 3.69161L23.108 3.55329L22.942 3.45647L22.7621 3.38731L22.4715 3.34582L18.7632 3.33199L18.5418 3.29049L18.3757 3.22133L18.2235 3.13835L18.0713 3.01386L17.9329 2.86172L17.8084 2.65424L17.7392 2.4606L17.6977 2.2393V2.05949L17.7392 1.83818L17.8084 1.64454L17.9053 1.47856L18.0021 1.35408L18.1405 1.21576L18.3342 1.09128L18.5279 1.00829L18.7217 0.966797Z" fill="#969696" fill-opacity="0.5"/>
<path d="M3.26557 0.991198H7.25067L7.45822 1.03269L7.67962 1.12951L7.8595 1.254L7.9702 1.35082L8.10857 1.53063L8.21926 1.75193L8.28845 2.01473V2.33286L8.21926 2.59565L8.12241 2.7893L8.01171 2.94144L7.94252 3.02443H7.91485V3.0521L7.76264 3.16275L7.62427 3.24574L7.3752 3.32873L7.19532 3.35639L3.54231 3.37022L3.29324 3.39788L3.11336 3.45321L2.94731 3.5362L2.76743 3.67451L2.67057 3.77134L2.5322 3.97881L2.44917 4.17245L2.40766 4.37992L2.39383 4.67038L2.37999 8.22508L2.33848 8.41872L2.26929 8.59853L2.15859 8.77834L2.07557 8.889H2.0479L2.02022 8.94432L1.85418 9.0688L1.63278 9.17946L1.46674 9.23478L1.32837 9.26245H1.05162L0.816392 9.20712L0.636509 9.12413L0.4843 9.02731L0.345929 8.90283L0.235232 8.77834L0.124534 8.59853L0.0415114 8.37723L0.0138371 8.23891L0 7.86546V4.57356L0.0138371 4.22778L0.0691857 3.85432L0.138371 3.56386L0.249069 3.23191L0.401277 2.89995L0.58116 2.59565L0.747206 2.36052L0.87174 2.2222L0.9686 2.11155L1.09313 1.97324L1.23151 1.84875L1.41139 1.69661L1.66046 1.53063L1.92336 1.37848L2.14476 1.26783L2.43534 1.15718L2.85045 1.04652L3.1272 1.00503L3.26557 0.991198Z" fill="#969696" fill-opacity="0.5"/>
</svg>
