<svg width="26" height="26" viewBox="0 0 26 26" fill="none" xmlns="http://www.w3.org/2000/svg">
<path fill-rule="evenodd" clip-rule="evenodd" d="M10.9391 19.863C5.82713 19.863 1.68231 15.7912 1.68231 10.7602C1.68231 5.72927 5.82713 1.64926 10.9391 1.64926C16.051 1.64926 20.1958 5.72927 20.1958 10.7602C20.1958 15.7912 16.051 19.863 10.9391 19.863ZM25.7531 24.5771L19.041 17.9694C20.7989 16.0594 21.8782 13.5398 21.8782 10.7602C21.8782 4.81085 16.9808 -0.00878906 10.9391 -0.00878906C4.89739 -0.00878906 0 4.81085 0 10.7602C0 16.7015 4.89739 21.5211 10.9391 21.5211C13.5495 21.5211 15.9437 20.619 17.8244 19.1154L24.5642 25.7474C24.8925 26.0725 25.4248 26.0725 25.7531 25.7474C26.0823 25.4304 26.0823 24.9022 25.7531 24.5771Z" fill="#969696" fill-opacity="0.5"/>
<path d="M15.0506 10.0775H11.8022H10.1784H6.93159C6.48379 10.0775 6 10.5442 6 10.9912C6 11.4464 6.48379 11.703 6.93159 11.703H10.1784H11.8022H15.0506C15.4984 11.703 16 11.4382 16 10.9912C16 10.5442 15.4984 10.0775 15.0506 10.0775Z" fill="#969696" fill-opacity="0.5"/>
<path d="M18.6731 17.6308L18.3457 17.9865L18.6902 18.3257L25.4018 24.9328C25.4019 24.9329 25.402 24.933 25.4021 24.9331C25.5353 25.065 25.5286 25.2695 25.4063 25.3872L25.4063 25.3872L25.4013 25.3921C25.2679 25.5243 25.0494 25.5243 24.916 25.3921L24.9149 25.391L18.175 18.759L17.8587 18.4477L17.5121 18.7248C15.7173 20.1599 13.4324 21.0211 10.9391 21.0211C5.16582 21.0211 0.5 16.4177 0.5 10.7602C0.5 5.0944 5.16607 0.491211 10.9391 0.491211C16.7121 0.491211 21.3782 5.0944 21.3782 10.7602C21.3782 13.4068 20.3513 15.8073 18.6731 17.6308ZM1.18231 10.7602C1.18231 16.0753 5.55907 20.363 10.9391 20.363C16.3191 20.363 20.6958 16.0753 20.6958 10.7602C20.6958 5.44568 16.3197 1.14926 10.9391 1.14926C5.55848 1.14926 1.18231 5.44569 1.18231 10.7602ZM11.8022 10.5775H15.0506C15.1114 10.5775 15.2314 10.6175 15.3486 10.729C15.4668 10.8414 15.5 10.9475 15.5 10.9912C15.5 11.0036 15.4991 11.0427 15.414 11.1C15.3235 11.1609 15.1855 11.203 15.0506 11.203H11.8022H10.1784H6.93159C6.79419 11.203 6.66294 11.1618 6.58023 11.1052C6.50628 11.0546 6.5 11.0172 6.5 10.9912C6.5 10.9412 6.53474 10.8341 6.64696 10.7247C6.75875 10.6157 6.87288 10.5775 6.93159 10.5775H10.1784H11.8022Z" stroke="#969696" stroke-opacity="0.5"/>
</svg>
