<svg width="26" height="26" viewBox="0 0 26 26" fill="none" xmlns="http://www.w3.org/2000/svg">
<path fill-rule="evenodd" clip-rule="evenodd" d="M10.9391 19.863C5.82712 19.863 1.68232 15.7912 1.68232 10.7602C1.68232 5.72927 5.82712 1.64926 10.9391 1.64926C16.051 1.64926 20.1958 5.72927 20.1958 10.7602C20.1958 15.7912 16.051 19.863 10.9391 19.863ZM25.7531 24.5771L19.041 17.9694C20.7989 16.0594 21.8782 13.5398 21.8782 10.7602C21.8782 4.81085 16.9808 -0.00878906 10.9391 -0.00878906C4.89738 -0.00878906 0 4.81085 0 10.7602C0 16.7015 4.89738 21.5211 10.9391 21.5211C13.5495 21.5211 15.9437 20.619 17.8244 19.1154L24.5642 25.7474C24.8925 26.0725 25.4248 26.0725 25.7531 25.7474C26.0823 25.4304 26.0823 24.9022 25.7531 24.5771ZM15.0506 10.0775H11.8022V6.82651C11.8022 6.37137 11.4389 6.01376 10.9903 6.01376C10.5425 6.01376 10.1784 6.37137 10.1784 6.82651V10.0775H6.9316C6.48379 10.0775 6.1197 10.2238 6.1197 10.6708C6.1197 11.126 6.48379 11.703 6.9316 11.703H10.1784V14.9541C10.1784 15.4092 10.5425 15.7668 10.9903 15.7668C11.4389 15.7668 11.8022 15.4092 11.8022 14.9541V11.703H15.0506C15.4984 11.703 15.8625 11.3373 15.8625 10.8903C15.8625 10.4433 15.4984 10.0775 15.0506 10.0775Z" fill="#969696" fill-opacity="0.5"/>
<path d="M18.6731 17.6308L18.3457 17.9865L18.6902 18.3257L25.4018 24.9328C25.4019 24.9329 25.402 24.933 25.4021 24.9331C25.5353 25.065 25.5286 25.2695 25.4063 25.3872L25.4063 25.3872L25.4013 25.3921C25.2679 25.5243 25.0494 25.5243 24.916 25.3921L24.9149 25.391L18.1751 18.759L17.8587 18.4477L17.5121 18.7248C15.7173 20.1599 13.4324 21.0211 10.9391 21.0211C5.16581 21.0211 0.5 16.4177 0.5 10.7602C0.5 5.0944 5.16606 0.491211 10.9391 0.491211C16.7121 0.491211 21.3782 5.0944 21.3782 10.7602C21.3782 13.4068 20.3513 15.8073 18.6731 17.6308ZM11.3022 10.0775V10.5775H11.8022H15.0506C15.2212 10.5775 15.3625 10.7184 15.3625 10.8903C15.3625 11.0622 15.2212 11.203 15.0506 11.203H11.8022H11.3022V11.703V14.9541C11.3022 15.1311 11.1647 15.2668 10.9903 15.2668C10.8163 15.2668 10.6784 15.1308 10.6784 14.9541V11.703V11.203H10.1784H6.9316C6.93008 11.203 6.85878 11.1958 6.76142 11.0626C6.66866 10.9357 6.6197 10.779 6.6197 10.6708C6.6197 10.65 6.62167 10.6371 6.62323 10.6302C6.62345 10.6301 6.62367 10.63 6.62391 10.6298C6.63573 10.6224 6.66469 10.6082 6.72006 10.5964C6.7749 10.5847 6.84543 10.5775 6.9316 10.5775H10.1784H10.6784V10.0775V6.82651C10.6784 6.64978 10.8163 6.51376 10.9903 6.51376C11.1647 6.51376 11.3022 6.64944 11.3022 6.82651V10.0775ZM1.18232 10.7602C1.18232 16.0753 5.55906 20.363 10.9391 20.363C16.3191 20.363 20.6958 16.0753 20.6958 10.7602C20.6958 5.44568 16.3197 1.14926 10.9391 1.14926C5.55848 1.14926 1.18232 5.44569 1.18232 10.7602Z" stroke="#969696" stroke-opacity="0.5"/>
</svg>
